<svg width="156" height="47" viewBox="0 0 156 47" fill="none" xmlns="http://www.w3.org/2000/svg">
<path d="M150.222 47H5.77775C2.59997 47 -3.05176e-05 44.3562 -3.05176e-05 41.125V5.875C-3.05176e-05 2.64375 2.59997 -2.28484e-06 5.77775 -2.28484e-06H150.222C153.4 -2.28484e-06 156 2.64375 156 5.875V41.125C156 44.3562 153.4 47 150.222 47Z" fill="#243B53"/>
<path d="M150.222 -2.28484e-06H5.77775C2.59997 -2.28484e-06 -3.05176e-05 2.64375 -3.05176e-05 5.875V41.125C-3.05176e-05 44.3562 2.59997 47 5.77775 47H150.222C153.4 47 156 44.3562 156 41.125V5.875C156 2.64375 153.4 -2.28484e-06 150.222 -2.28484e-06ZM150.222 0.939995C152.898 0.939995 155.076 3.15417 155.076 5.875V41.125C155.076 43.8463 152.898 46.0605 150.222 46.0605H5.77775C3.10194 46.0605 0.924414 43.8463 0.924414 41.125V5.875C0.924414 3.15417 3.10194 0.939995 5.77775 0.939995H150.222Z" fill="#A6A6A6"/>
<path d="M54.7946 12.0362C54.7946 13.0206 54.5079 13.8045 53.9337 14.3893C53.2815 15.0847 52.4315 15.4326 51.3865 15.4326C50.3858 15.4326 49.5349 15.0801 48.8353 14.3742C48.1343 13.6687 47.7845 12.7939 47.7845 11.7502C47.7845 10.7059 48.1343 9.83163 48.8353 9.12569C49.5349 8.42022 50.3858 8.06725 51.3865 8.06725C51.883 8.06725 52.3584 8.16595 52.8098 8.36288C53.2611 8.56028 53.6232 8.8223 53.894 9.15048L53.2846 9.77053C52.8256 9.21288 52.1936 8.93428 51.3865 8.93428C50.6566 8.93428 50.0256 9.19502 49.493 9.71683C48.9603 10.2392 48.694 10.9166 48.694 11.7502C48.694 12.5837 48.9603 13.2611 49.493 13.7835C50.0256 14.3053 50.6566 14.5661 51.3865 14.5661C52.1607 14.5661 52.8062 14.3039 53.323 13.7789C53.6584 13.4369 53.8524 12.9615 53.9043 12.3509H51.3865V11.5041H54.7463C54.7787 11.6882 54.7946 11.865 54.7946 12.0362Z" fill="white"/>
<path d="M54.7946 12.0358H54.679C54.6781 12.9978 54.4018 13.745 53.852 14.3059L53.8507 14.3069L53.8502 14.3078C53.2187 14.9792 52.4071 15.3134 51.3865 15.3148C50.4125 15.3134 49.5972 14.9756 48.9165 14.2908C48.2372 13.6046 47.9013 12.7669 47.9001 11.7499C47.9013 10.7323 48.2372 9.89511 48.9165 9.20938C49.5972 8.52412 50.4125 8.18584 51.3865 8.18443C51.8681 8.18443 52.3268 8.27996 52.7641 8.47042C53.202 8.6623 53.5478 8.91375 53.8055 9.22595L53.894 9.15016L53.8123 9.06709L53.2029 9.68761L53.2846 9.77021L53.3736 9.69501C52.8932 9.10974 52.2189 8.8147 51.3865 8.81646C50.6296 8.81552 49.9638 9.09047 49.413 9.63215C48.857 10.1756 48.5776 10.891 48.5785 11.7499C48.5776 12.6087 48.857 13.3241 49.413 13.8676C49.9638 14.4092 50.6296 14.6842 51.3865 14.6832C52.1864 14.6846 52.868 14.4088 53.4047 13.8617C53.7631 13.4963 53.9663 12.9901 54.0195 12.3607L54.0303 12.2331H51.502V11.6213H54.7463V11.5038L54.6324 11.5245C54.6641 11.7026 54.679 11.8719 54.679 12.0358H54.7946H54.9101C54.9101 11.8572 54.8938 11.6737 54.86 11.4828L54.8429 11.3863H51.2709V12.3506V12.4681H53.9043V12.3506L53.7892 12.3405C53.7383 12.9318 53.5531 13.377 53.2413 13.6955C52.7447 14.1986 52.1354 14.4468 51.3865 14.4482C50.6837 14.4473 50.0874 14.2013 49.5733 13.6987C49.0642 13.1979 48.8109 12.5586 48.8096 11.7499C48.8109 10.9411 49.0642 10.3018 49.5733 9.801C50.0874 9.29845 50.6837 9.0524 51.3865 9.05146C52.1679 9.05334 52.7579 9.31584 53.1962 9.846L53.2774 9.94423L53.9757 9.23323L54.0506 9.15709L53.9824 9.07485C53.6985 8.73069 53.3203 8.4575 52.8553 8.25469C52.3895 8.0513 51.8979 7.94943 51.3865 7.94943C50.3592 7.94849 49.4727 8.31568 48.7535 9.0423C48.0318 9.76751 47.668 10.6791 47.6689 11.7499C47.668 12.8202 48.0318 13.7322 48.754 14.4579C49.4726 15.184 50.3592 15.5507 51.3865 15.5498C52.4563 15.5507 53.3438 15.1894 54.0172 14.4702L53.9337 14.389L54.0154 14.4721C54.6139 13.8639 54.9109 13.0424 54.9101 12.0358H54.7946Z" fill="white"/>
<path d="M60.1209 9.09099H56.9634V11.3263H59.8108V12.1735H56.9634V14.4088H60.1209V15.2749H56.0733V8.2249H60.1209V9.09099Z" fill="white"/>
<path d="M60.1209 9.09117V8.97367H56.8479V11.444H59.6953V12.0558L56.8479 12.0562V14.5265H60.0053V15.1576H56.1888V8.34258H60.0053V9.09117H60.1209V8.97367V9.09117H60.2364V8.22508V8.10758H55.9577V15.3926H60.2364V14.409V14.2915H57.079V12.2912H59.9264V11.3265V11.209H57.079V9.20867H60.2364V9.09117H60.1209Z" fill="white"/>
<path d="M63.8778 15.2749H62.9863V9.09099H61.0498V8.2249H65.8143V9.09099H63.8778V15.2749Z" fill="white"/>
<path d="M63.8778 15.2751V15.1576H63.1018V8.97367H61.1653V8.34258H65.6987V8.97367H63.7622V15.2751H63.8778V15.1576V15.2751H63.9933V9.20867H65.9298V8.22508V8.10758H60.9342V9.09117V9.20867H62.8707V15.3926H63.8778H63.9933V15.2751H63.8778Z" fill="white"/>
<path d="M69.2615 15.2749V8.2249H70.1521V15.2749H69.2615Z" fill="white"/>
<path d="M69.2616 15.2751H69.3771V8.34258H70.0366V15.1576H69.2616V15.2751H69.3771H69.2616V15.3926H70.1521H70.2677V8.10758H69.2616H69.146V15.3926H69.2616V15.2751Z" fill="white"/>
<path d="M74.104 15.2749H73.2125V9.09099H71.2762V8.2249H76.0405V9.09099H74.104V15.2749Z" fill="white"/>
<path d="M74.104 15.2751V15.1576H73.3281V8.97367H71.3917V8.34258H75.9249V8.97367H73.9885V15.2751H74.104V15.1576V15.2751H74.2196V9.20867H76.1561V8.22508V8.10758H71.1606V9.09117V9.20867H73.097V15.3926H74.104H74.2196V15.2751H74.104Z" fill="white"/>
<path d="M80.6338 13.7739C81.147 14.3021 81.775 14.5661 82.5175 14.5661C83.2601 14.5661 83.8883 14.3021 84.4007 13.7739C84.9144 13.2456 85.1717 12.5703 85.1717 11.7502C85.1717 10.93 84.9144 10.2547 84.4007 9.72647C83.8883 9.19819 83.2601 8.93428 82.5175 8.93428C81.775 8.93428 81.147 9.19819 80.6338 9.72647C80.1215 10.2547 79.8642 10.93 79.8642 11.7502C79.8642 12.5703 80.1215 13.2456 80.6338 13.7739ZM85.0597 14.3641C84.3781 15.0768 83.5304 15.4326 82.5175 15.4326C81.5036 15.4326 80.6564 15.0768 79.9762 14.3641C79.2941 13.6521 78.9547 12.7806 78.9547 11.7502C78.9547 10.7197 79.2941 9.84808 79.9762 9.13626C80.6564 8.42339 81.5036 8.06725 82.5175 8.06725C83.525 8.06725 84.3704 8.42527 85.0552 9.14085C85.7391 9.85642 86.0812 10.7262 86.0812 11.7502C86.0812 12.7806 85.7399 13.6521 85.0597 14.3641Z" fill="white"/>
<path d="M80.6338 13.7736L80.5517 13.8562C81.0839 14.4056 81.7479 14.6847 82.5175 14.6832C83.2866 14.6847 83.9515 14.4056 84.4829 13.8562C85.0186 13.3063 85.2881 12.5948 85.2873 11.7499C85.2881 10.9049 85.0186 10.1934 84.4829 9.64355C83.9515 9.09412 83.2866 8.81506 82.5175 8.81647C81.7479 8.81506 81.0839 9.09412 80.5517 9.64355C80.0172 10.1934 79.7473 10.9049 79.7487 11.7499C79.7473 12.5948 80.0172 13.3063 80.5517 13.8562L80.6338 13.7736L80.716 13.691C80.2258 13.1837 79.9807 12.5457 79.9798 11.7499C79.9807 10.954 80.2258 10.316 80.716 9.80875C81.2107 9.30162 81.8015 9.05288 82.5175 9.05147C83.2329 9.05288 83.8251 9.30162 84.3185 9.80875C84.8097 10.316 85.0548 10.954 85.0557 11.7499C85.0548 12.5457 84.8097 13.1837 84.3185 13.691C83.8251 14.1981 83.2329 14.4468 82.5175 14.4482C81.8015 14.4468 81.2107 14.1981 80.716 13.691L80.6338 13.7736ZM85.0597 14.3638L84.9771 14.2821C84.3145 14.9724 83.5042 15.3134 82.5175 15.3148C81.5303 15.3134 80.72 14.9724 80.0587 14.2821L80.0556 14.2785L80.0587 14.2821C79.3975 13.5894 79.0712 12.7541 79.0703 11.7499C79.0712 10.7456 79.3975 9.91027 80.0587 9.21761C80.72 8.5273 81.5303 8.18584 82.5175 8.18443C83.4979 8.18584 84.3063 8.52871 84.9726 9.22266C85.6361 9.9185 85.9643 10.7525 85.9657 11.7499C85.9643 12.7541 85.637 13.5894 84.9771 14.2821L85.0597 14.3638L85.1428 14.4454C85.8433 13.7139 86.1976 12.8064 86.1968 11.7499C86.1976 10.6993 85.8419 9.79371 85.1382 9.05887C84.4341 8.3212 83.5521 7.94814 82.5175 7.94943C81.4775 7.94814 80.5928 8.31944 79.8931 9.05428V9.05381C79.1912 9.78584 78.8382 10.6933 78.8391 11.7499C78.8382 12.8064 79.1912 13.7139 79.8931 14.4459L79.8962 14.4492L79.8931 14.4454C80.5928 15.1803 81.4775 15.5507 82.5175 15.5498C83.557 15.5507 84.4417 15.1803 85.1428 14.4454L85.0597 14.3638Z" fill="white"/>
<path d="M87.3315 15.2749V8.2249H88.4158L91.7854 13.7093H91.8237L91.7854 12.3507V8.2249H92.6769V15.2749H91.747L88.2216 9.52469H88.1833L88.2216 10.8838V15.2749H87.3315Z" fill="white"/>
<path d="M87.3315 15.2751H87.4471V8.34258H88.3516L91.7212 13.827H91.8237H91.9424L91.9009 12.3491V8.34258H92.5613V15.1576H91.8112L88.2858 9.40737H88.1833H88.0646L88.1061 10.8859V15.1576H87.3315V15.2751H87.4471H87.3315V15.3926H88.2216H88.3372V10.8821L88.2988 9.52169L88.1833 9.52487V9.64237H88.2216V9.52487L88.1237 9.58737L91.6829 15.3926H92.6769H92.7924V8.10758H91.7854H91.6698V12.3523L91.7082 13.7127L91.8237 13.7095V13.592H91.7854V13.7095L91.8834 13.6471L88.4798 8.10758H87.3315H87.216V15.3926H87.3315V15.2751Z" fill="white"/>
<path d="M123.57 35.25H125.727V20.5611H123.57V35.25ZM142.992 25.8524L140.52 32.2207H140.446L137.881 25.8524H135.558L139.405 34.7533L137.212 39.7044H139.462L145.39 25.8524H142.992ZM130.764 33.5816C130.057 33.5816 129.072 33.2227 129.072 32.3341C129.072 31.2004 130.299 30.7657 131.358 30.7657C132.306 30.7657 132.751 30.9736 133.328 31.2574C133.16 32.6178 132.008 33.5816 130.764 33.5816ZM131.024 25.531C129.463 25.531 127.846 26.2305 127.177 27.7801L129.091 28.5925C129.5 27.7801 130.261 27.5152 131.061 27.5152C132.176 27.5152 133.309 28.1959 133.328 29.4053V29.5563C132.937 29.3295 132.102 28.9895 131.079 28.9895C129.017 28.9895 126.916 30.1419 126.916 32.2964C126.916 34.2618 128.608 35.5281 130.503 35.5281C131.953 35.5281 132.751 34.8667 133.254 34.0921H133.328V35.2257H135.409V29.5939C135.409 26.9865 133.496 25.531 131.024 25.531ZM117.698 27.6405H114.631V22.6055H117.698C119.31 22.6055 120.225 23.9626 120.225 25.1229C120.225 26.2613 119.31 27.6405 117.698 27.6405ZM117.642 20.5611H112.476V35.25H114.631V29.6849H117.642C120.032 29.6849 122.381 27.9255 122.381 25.1229C122.381 22.3204 120.032 20.5611 117.642 20.5611ZM89.4689 33.5843C87.9792 33.5843 86.732 32.3162 86.732 30.5743C86.732 28.8142 87.9792 27.5267 89.4689 27.5267C90.9395 27.5267 92.0937 28.8142 92.0937 30.5743C92.0937 32.3162 90.9395 33.5843 89.4689 33.5843ZM91.9448 26.6749H91.8702C91.3864 26.0882 90.4551 25.5581 89.2825 25.5581C86.8251 25.5581 84.5727 27.7539 84.5727 30.5743C84.5727 33.376 86.8251 35.5529 89.2825 35.5529C90.4551 35.5529 91.3864 35.0228 91.8702 34.4174H91.9448V35.1366C91.9448 37.0488 90.9395 38.071 89.3199 38.071C87.9982 38.071 87.179 37.1052 86.8436 36.2914L84.9636 37.0864C85.5035 38.4115 86.937 40.0396 89.3199 40.0396C91.8517 40.0396 93.9926 38.5249 93.9926 34.8337V25.8611H91.9448V26.6749ZM95.4818 35.25H97.6413V20.5606H95.4818V35.25ZM100.825 30.4041C100.769 28.4731 102.296 27.489 103.394 27.489C104.251 27.489 104.976 27.9241 105.218 28.5493L100.825 30.4041ZM107.527 28.7384C107.118 27.6212 105.87 25.5581 103.319 25.5581C100.787 25.5581 98.684 27.5836 98.684 30.5555C98.684 33.3572 100.769 35.5529 103.561 35.5529C105.814 35.5529 107.118 34.1521 107.657 33.3383L105.982 32.2023C105.424 33.0354 104.66 33.5843 103.561 33.5843C102.463 33.5843 101.681 33.0731 101.178 32.0701L107.75 29.3062L107.527 28.7384ZM55.1706 27.0915V29.2116H60.1597C60.0107 30.4041 59.6198 31.2748 59.024 31.8806C58.2982 32.6191 57.1625 33.4329 55.1706 33.4329C52.0988 33.4329 49.6974 30.9153 49.6974 27.7919C49.6974 24.6685 52.0988 22.1506 55.1706 22.1506C56.8275 22.1506 58.0373 22.8133 58.931 23.6652L60.4017 22.1699C59.1545 20.9581 57.4974 20.0306 55.1706 20.0306C50.9631 20.0306 47.4261 23.5138 47.4261 27.7919C47.4261 32.0701 50.9631 35.5529 55.1706 35.5529C57.4419 35.5529 59.1545 34.7961 60.4947 33.376C61.8724 31.9752 62.3007 30.0066 62.3007 28.4167C62.3007 27.9241 62.2636 27.4702 62.1887 27.0915H55.1706ZM67.9729 33.5843C66.4832 33.5843 65.1986 32.335 65.1986 30.5555C65.1986 28.7572 66.4832 27.5267 67.9729 27.5267C69.4619 27.5267 70.7466 28.7572 70.7466 30.5555C70.7466 32.335 69.4619 33.5843 67.9729 33.5843ZM67.9729 25.5581C65.2545 25.5581 63.0391 27.6593 63.0391 30.5555C63.0391 33.4329 65.2545 35.5529 67.9729 35.5529C70.6906 35.5529 72.9061 33.4329 72.9061 30.5555C72.9061 27.6593 70.6906 25.5581 67.9729 25.5581ZM78.7348 33.5843C77.2457 33.5843 75.961 32.335 75.961 30.5555C75.961 28.7572 77.2457 27.5267 78.7348 27.5267C80.224 27.5267 81.5086 28.7572 81.5086 30.5555C81.5086 32.335 80.224 33.5843 78.7348 33.5843ZM78.7348 25.5581C76.0166 25.5581 73.8016 27.6593 73.8016 30.5555C73.8016 33.4329 76.0166 35.5529 78.7348 35.5529C81.4527 35.5529 83.6681 33.4329 83.6681 30.5555C83.6681 27.6593 81.4527 25.5581 78.7348 25.5581Z" fill="white"/>
<path d="M12.1446 38.0576L12.0588 37.9741C11.7225 37.6123 11.524 37.0505 11.524 36.3231V36.4943V10.508C11.524 10.5056 11.524 10.5039 11.524 10.502C11.524 10.5042 11.524 10.5061 11.524 10.5084V10.6801C11.524 9.89239 11.7554 9.29901 12.1432 8.94322L26.4604 23.5009L12.1446 38.0576ZM11.524 10.5006C11.524 10.4358 11.5257 10.373 11.529 10.311C11.5257 10.3725 11.524 10.4358 11.524 10.5006ZM11.529 10.3082C11.529 10.3074 11.529 10.3065 11.5293 10.3055C11.529 10.3065 11.529 10.3074 11.529 10.3082ZM11.5293 10.3C11.5293 10.2995 11.5293 10.2991 11.5293 10.2986C11.5293 10.2991 11.5293 10.2995 11.5293 10.3Z" fill="url(#paint0_linear)"/>
<path d="M31.232 28.5273L31.3408 28.4645L36.9948 25.1979C37.5339 24.8863 37.8932 24.5085 38.0724 24.1088C37.8936 24.5085 37.5342 24.8867 36.9948 25.1983L31.3408 28.465L31.232 28.5273ZM31.2333 28.3552L26.4603 23.501L31.2329 18.6477L36.9948 21.9762C37.7265 22.399 38.1373 22.9439 38.206 23.5006C38.206 23.501 38.206 23.502 38.206 23.5028C38.1373 24.0582 37.7265 24.6035 36.9948 25.0262L31.2333 28.3552Z" fill="url(#paint1_linear)"/>
<path d="M13.1652 38.6118C12.7653 38.6118 12.4163 38.4796 12.1442 38.2299L12.1446 38.2295C12.4168 38.4792 12.7662 38.6118 13.1661 38.6118C13.2008 38.6118 13.236 38.6109 13.2717 38.6091C13.2356 38.6109 13.1999 38.6118 13.1652 38.6118ZM13.1657 38.4397C12.7657 38.4401 12.4168 38.3075 12.1446 38.0578V38.0575L26.4603 23.5007L31.2334 28.3549L14.4602 38.0455C13.9962 38.313 13.5565 38.4397 13.1657 38.4397ZM12.1406 38.2268C12.1153 38.2034 12.0904 38.1786 12.066 38.1529L12.1406 38.2268Z" fill="url(#paint2_linear)"/>
<path d="M26.4603 23.501L12.1432 8.94331C12.4154 8.69409 12.7639 8.56191 13.1633 8.56191C13.5552 8.56191 13.9952 8.68904 14.4602 8.95706L31.2329 18.6476L26.4603 23.501ZM31.3408 18.538L14.4602 8.78551C13.9952 8.51737 13.5552 8.39024 13.1633 8.39024C13.1615 8.39024 13.1602 8.39024 13.1584 8.39024C13.1607 8.39024 13.1624 8.39024 13.1652 8.39024C13.5561 8.39024 13.9957 8.5169 14.4602 8.78504L31.3408 18.538Z" fill="url(#paint3_linear)"/>
<path d="M13.2718 38.6094C13.6351 38.5882 14.0373 38.4611 14.4603 38.2174L31.232 28.5273L14.4603 38.2174C14.0377 38.4616 13.6351 38.5882 13.2718 38.6094ZM12.1442 38.2302L12.1406 38.227C12.1419 38.228 12.1432 38.2293 12.1442 38.2302ZM12.0661 38.1531L12.0588 38.1458V38.1454C12.0616 38.1481 12.0637 38.1508 12.0661 38.1531Z" fill="black"/>
<path d="M31.232 28.5273L31.3408 28.4645L31.232 28.5273Z" fill="url(#paint4_linear)"/>
<path d="M13.1661 38.6118C12.7662 38.6118 12.4168 38.4792 12.1446 38.2295L12.1442 38.2299C12.1432 38.229 12.1419 38.2277 12.1406 38.2268L12.0661 38.1529C12.0637 38.1505 12.0616 38.1478 12.0588 38.1451L12.1446 38.0578C12.4168 38.3075 12.7657 38.4401 13.1657 38.4397C13.5565 38.4397 13.9962 38.313 14.4603 38.0455L31.2334 28.3549L31.3408 28.4642L31.232 28.527L14.4603 38.2171C14.0373 38.4608 13.6351 38.588 13.2718 38.6091C13.2361 38.6109 13.2008 38.6118 13.1661 38.6118Z" fill="url(#paint5_linear)"/>
<path d="M12.0588 38.146C11.7225 37.7842 11.524 37.2224 11.524 36.495V36.4945C11.524 37.2224 11.7225 37.7837 12.0588 38.1455V38.146Z" fill="black"/>
<path d="M12.0588 38.1455C11.7225 37.7837 11.524 37.2224 11.524 36.4945V36.3233C11.524 37.0508 11.7225 37.6125 12.0588 37.9743L12.1446 38.0579L12.0588 38.1455Z" fill="url(#paint6_linear)"/>
<path d="M12.0588 38.1455L12.1446 38.0579V38.0582L12.0588 38.1455Z" fill="url(#paint7_linear)"/>
<path d="M38.0724 24.1084C38.1613 23.9101 38.206 23.7063 38.206 23.5024C38.206 23.5021 38.206 23.5016 38.206 23.5016C38.206 23.7058 38.1613 23.9096 38.0724 24.1084Z" fill="black"/>
<path d="M31.3408 28.4644L31.2334 28.3551L36.9949 25.0261C37.7266 24.6034 38.1374 24.0581 38.206 23.5027C38.206 23.7065 38.1613 23.9103 38.0724 24.1086C37.8932 24.5084 37.5339 24.8861 36.9949 25.1977L31.3408 28.4644Z" fill="url(#paint8_linear)"/>
<path d="M38.206 23.501V23.5005C38.2055 22.8859 37.8015 22.2713 36.9948 21.805L31.3408 18.5384H31.3404L31.3408 18.538L36.9948 21.8045C37.8025 22.2709 38.2069 22.8863 38.206 23.501Z" fill="#404040"/>
<path d="M38.206 23.5005C38.1374 22.9438 37.7266 22.3989 36.9949 21.9762L31.2329 18.6476L31.3404 18.5384H31.3409L36.9949 21.805C37.8016 22.2713 38.2056 22.8858 38.206 23.5005Z" fill="url(#paint9_linear)"/>
<path d="M11.524 10.502C11.524 10.5015 11.524 10.501 11.524 10.5005C11.524 10.501 11.524 10.5015 11.524 10.502ZM11.529 10.311C11.529 10.3101 11.529 10.3091 11.529 10.3082C11.529 10.3091 11.529 10.3101 11.529 10.311ZM11.5293 10.3055C11.5293 10.3036 11.5293 10.3019 11.5293 10.3C11.5293 10.3019 11.5293 10.3036 11.5293 10.3055ZM11.5293 10.2986C11.5962 9.09148 12.2417 8.39424 13.1548 8.39012C12.7589 8.39247 12.4141 8.52466 12.1442 8.772V8.77153L12.1409 8.77482C12.1125 8.8009 12.0855 8.82852 12.0588 8.85695C11.7554 9.18325 11.5641 9.67205 11.5293 10.2986Z" fill="#404040"/>
<path d="M11.524 10.6802V10.5085C11.524 10.5062 11.524 10.5043 11.524 10.502C11.524 10.5016 11.524 10.5011 11.524 10.5006C11.524 10.4359 11.5257 10.3726 11.529 10.3111C11.529 10.3102 11.529 10.3092 11.529 10.3083C11.529 10.3075 11.529 10.3065 11.5293 10.3056C11.5293 10.3037 11.5293 10.3019 11.5293 10.3001C11.5293 10.2996 11.5293 10.2991 11.5293 10.2987C11.5641 9.67214 11.7554 9.18334 12.0588 8.85704L12.1432 8.94329C11.7554 9.29908 11.524 9.89245 11.524 10.6802ZM12.1409 8.77491L12.1442 8.77162C12.1432 8.77303 12.1419 8.77397 12.1409 8.77491Z" fill="url(#paint10_linear)"/>
<path d="M31.2329 18.6475L14.4603 8.95688C13.9953 8.68886 13.5552 8.56173 13.1634 8.56173C12.7639 8.56173 12.4154 8.69391 12.1432 8.94313L12.0588 8.85689C12.0855 8.82845 12.1125 8.80084 12.1409 8.77475C12.1419 8.77381 12.1432 8.77287 12.1442 8.77193C12.4141 8.5246 12.7589 8.39241 13.1548 8.39006C13.1557 8.39006 13.157 8.39006 13.1584 8.39006C13.1603 8.39006 13.1615 8.39006 13.1634 8.39006C13.5552 8.39006 13.9953 8.51719 14.4603 8.78533L31.3408 18.5378L31.3404 18.5382L31.2329 18.6475Z" fill="url(#paint11_linear)"/>
<defs>
<linearGradient id="paint0_linear" x1="25.1909" y1="10.2338" x2="5.47416" y2="29.6243" gradientUnits="userSpaceOnUse">
<stop stop-color="#00A0FF"/>
<stop offset="0.00657445" stop-color="#00A1FF"/>
<stop offset="0.2601" stop-color="#00BEFF"/>
<stop offset="0.5122" stop-color="#00D2FF"/>
<stop offset="0.7604" stop-color="#00DFFF"/>
<stop offset="1" stop-color="#00E3FF"/>
</linearGradient>
<linearGradient id="paint1_linear" x1="39.0975" y1="23.5017" x2="11.1365" y2="23.5017" gradientUnits="userSpaceOnUse">
<stop stop-color="#FFE000"/>
<stop offset="0.4087" stop-color="#FFBD00"/>
<stop offset="0.7754" stop-color="#FFA500"/>
<stop offset="1" stop-color="#FF9C00"/>
</linearGradient>
<linearGradient id="paint2_linear" x1="28.6889" y1="26.1977" x2="1.95163" y2="52.4925" gradientUnits="userSpaceOnUse">
<stop stop-color="#FF3A44"/>
<stop offset="1" stop-color="#C31162"/>
</linearGradient>
<linearGradient id="paint3_linear" x1="8.43238" y1="0.207067" x2="20.3717" y2="11.9488" gradientUnits="userSpaceOnUse">
<stop stop-color="#32A071"/>
<stop offset="0.0685" stop-color="#2DA771"/>
<stop offset="0.4762" stop-color="#15CF74"/>
<stop offset="0.8009" stop-color="#06E775"/>
<stop offset="1" stop-color="#00F076"/>
</linearGradient>
<linearGradient id="paint4_linear" x1="39.0975" y1="23.5015" x2="11.1365" y2="23.5015" gradientUnits="userSpaceOnUse">
<stop stop-color="#CCB300"/>
<stop offset="0.4087" stop-color="#CC9700"/>
<stop offset="0.7754" stop-color="#CC8400"/>
<stop offset="1" stop-color="#CC7D00"/>
</linearGradient>
<linearGradient id="paint5_linear" x1="28.6889" y1="26.1977" x2="1.95164" y2="52.4925" gradientUnits="userSpaceOnUse">
<stop stop-color="#CC2E36"/>
<stop offset="1" stop-color="#9C0E4E"/>
</linearGradient>
<linearGradient id="paint6_linear" x1="25.1909" y1="10.2341" x2="5.47415" y2="29.6245" gradientUnits="userSpaceOnUse">
<stop stop-color="#008DE0"/>
<stop offset="0.00657445" stop-color="#008DE0"/>
<stop offset="0.2601" stop-color="#00A7E0"/>
<stop offset="0.5122" stop-color="#00B8E0"/>
<stop offset="0.7604" stop-color="#00C4E0"/>
<stop offset="1" stop-color="#00C7E0"/>
</linearGradient>
<linearGradient id="paint7_linear" x1="28.6886" y1="26.1979" x2="1.95087" y2="52.4922" gradientUnits="userSpaceOnUse">
<stop stop-color="#E0333C"/>
<stop offset="1" stop-color="#AB0F56"/>
</linearGradient>
<linearGradient id="paint8_linear" x1="39.0975" y1="23.5016" x2="11.1365" y2="23.5016" gradientUnits="userSpaceOnUse">
<stop stop-color="#E0C500"/>
<stop offset="0.4087" stop-color="#E0A600"/>
<stop offset="0.7754" stop-color="#E09100"/>
<stop offset="1" stop-color="#E08900"/>
</linearGradient>
<linearGradient id="paint9_linear" x1="39.0975" y1="23.5017" x2="11.1366" y2="23.5017" gradientUnits="userSpaceOnUse">
<stop stop-color="#FFE840"/>
<stop offset="0.4087" stop-color="#FFCE40"/>
<stop offset="0.7754" stop-color="#FFBC40"/>
<stop offset="1" stop-color="#FFB540"/>
</linearGradient>
<linearGradient id="paint10_linear" x1="25.1909" y1="10.2339" x2="5.47416" y2="29.6243" gradientUnits="userSpaceOnUse">
<stop stop-color="#40B8FF"/>
<stop offset="0.00657445" stop-color="#40B9FF"/>
<stop offset="0.2601" stop-color="#40CEFF"/>
<stop offset="0.5122" stop-color="#40DDFF"/>
<stop offset="0.7604" stop-color="#40E7FF"/>
<stop offset="1" stop-color="#40EAFF"/>
</linearGradient>
<linearGradient id="paint11_linear" x1="8.43241" y1="0.206884" x2="20.3717" y2="11.9486" gradientUnits="userSpaceOnUse">
<stop stop-color="#65B895"/>
<stop offset="0.0685" stop-color="#62BD95"/>
<stop offset="0.4762" stop-color="#50DB97"/>
<stop offset="0.8009" stop-color="#44ED98"/>
<stop offset="1" stop-color="#40F498"/>
</linearGradient>
</defs>
</svg>
