<svg xmlns="http://www.w3.org/2000/svg" width="138" height="47" viewBox="0 0 138 47" fill="none">
<path d="M127.011 0.00015275H10.9957C10.5728 0.00015275 10.155 0.00015275 9.73319 0.00250274C9.38013 0.00485273 9.02988 0.0116795 8.67343 0.0174252C7.89905 0.0267098 7.1265 0.096122 6.36248 0.225059C5.59953 0.356802 4.86048 0.605177 4.17033 0.961781C3.48102 1.3214 2.85118 1.78869 2.30365 2.3467C1.75326 2.90314 1.29446 3.54631 0.944898 4.25148C0.594374 4.95524 0.35132 5.70939 0.22413 6.48787C0.0957306 7.26537 0.0266377 8.05184 0.0174714 8.84021C0.00676945 9.20047 0.00563929 9.56192 0 9.92222V37.0814C0.00563929 37.4462 0.00676945 37.7997 0.0174714 38.1646C0.0266405 38.9529 0.0957334 39.7394 0.22413 40.5168C0.350969 41.2958 0.594037 42.0504 0.944898 42.7544C1.2943 43.4573 1.75316 44.0978 2.30365 44.6512C2.8491 45.2117 3.47935 45.6793 4.17033 46.0361C4.86047 46.3937 5.59944 46.6436 6.36248 46.7773C7.12663 46.9052 7.8991 46.9747 8.67343 46.9851C9.02988 46.9931 9.38013 46.9977 9.73319 46.9977C10.1549 47 10.5728 47 10.9957 47H127.011C127.425 47 127.846 47 128.261 46.9977C128.612 46.9977 128.972 46.9931 129.324 46.9851C130.097 46.9752 130.868 46.9058 131.63 46.7773C132.396 46.6426 133.137 46.3928 133.831 46.0361C134.521 45.6791 135.151 45.2115 135.696 44.6512C136.245 44.0957 136.705 43.4556 137.059 42.7544C137.407 42.0498 137.647 41.2953 137.772 40.5168C137.901 39.7393 137.973 38.953 137.987 38.1646C137.991 37.7997 137.991 37.4462 137.991 37.0814C138 36.6545 138 36.23 138 35.7962V11.2051C138 10.7748 138 10.3479 137.991 9.92222C137.991 9.56192 137.991 9.20047 137.987 8.84017C137.973 8.05172 137.901 7.26543 137.772 6.48782C137.647 5.70979 137.406 4.9557 137.059 4.25143C136.347 2.838 135.218 1.68748 133.831 0.961676C133.137 0.605942 132.396 0.357634 131.63 0.224953C130.868 0.0954482 130.097 0.0260118 129.324 0.0172607C128.972 0.0115267 128.612 0.00464123 128.261 0.00234999C127.846 0 127.425 0 127.011 0V0.00015275Z" fill="#A6A6A6"/>
<path d="M9.73881 45.9719C9.38745 45.9719 9.04457 45.9673 8.69596 45.9594C7.97379 45.9498 7.2533 45.8857 6.54041 45.7677C5.87568 45.6511 5.23174 45.4341 4.62982 45.1239C4.03341 44.8163 3.48945 44.413 3.01876 43.9294C2.54125 43.4515 2.1437 42.8972 1.84187 42.2885C1.53672 41.6759 1.32553 41.0192 1.21567 40.3413C1.09703 39.613 1.03284 38.8765 1.02366 38.1382C1.01635 37.8904 1.00677 37.0653 1.00677 37.0653V9.92227C1.00677 9.92227 1.01697 9.10986 1.02372 8.87119C1.03251 8.13409 1.09633 7.39874 1.21461 6.67151C1.32467 5.9918 1.53602 5.33321 1.84134 4.71855C2.14206 4.11027 2.5374 3.55557 3.01203 3.07596C3.48613 2.5918 4.03183 2.1864 4.62925 1.87456C5.22979 1.5654 5.87252 1.34996 6.53591 1.23544C7.25113 1.11625 7.97412 1.05182 8.6988 1.04267L9.73938 1.02832H128.255L129.308 1.04324C130.026 1.05194 130.743 1.1158 131.451 1.23429C132.121 1.35024 132.771 1.56719 133.378 1.87801C134.575 2.50645 135.549 3.5007 136.163 4.72142C136.464 5.33184 136.672 5.98505 136.78 6.65889C136.9 7.39209 136.967 8.13322 136.981 8.87636C136.984 9.20911 136.984 9.56655 136.984 9.92227C136.993 10.3629 136.993 10.7823 136.993 11.2051V35.7962C136.993 36.2231 136.993 36.6396 136.984 37.0596C136.984 37.4417 136.984 37.7917 136.98 38.152C136.966 38.8819 136.9 39.6097 136.783 40.3298C136.675 41.0126 136.465 41.6744 136.16 42.2921C135.856 42.8942 135.461 43.4436 134.989 43.9203C134.517 44.4065 133.973 44.8121 133.375 45.1217C132.769 45.4342 132.121 45.652 131.451 45.7677C130.738 45.8863 130.018 45.9504 129.296 45.9594C128.958 45.9673 128.604 45.9719 128.261 45.9719L127.011 45.9743L9.73881 45.9719Z" fill="#243B53"/>
<path d="M28.5642 23.8534C28.5766 22.8727 28.8323 21.9111 29.3074 21.0581C29.7826 20.2051 30.4618 19.4885 31.2818 18.9748C30.7609 18.2167 30.0736 17.5929 29.2746 17.1528C28.4756 16.7127 27.5869 16.4685 26.6791 16.4395C24.7426 16.2324 22.8652 17.6202 21.8783 17.6202C20.8724 17.6202 19.353 16.4601 17.7169 16.4944C16.6586 16.5292 15.6273 16.8428 14.7233 17.4045C13.8193 17.9662 13.0735 18.7569 12.5586 19.6996C10.3283 23.634 11.9919 29.4162 14.1284 32.5965C15.1973 34.1538 16.4466 35.8933 18.0812 35.8316C19.6808 35.764 20.2783 34.7923 22.2091 34.7923C24.122 34.7923 24.6825 35.8316 26.3503 35.7924C28.0668 35.764 29.1482 34.2282 30.1797 32.6561C30.9477 31.5465 31.5387 30.3202 31.9307 29.0225C30.9335 28.5927 30.0825 27.8734 29.4839 26.9542C28.8852 26.035 28.5654 24.9566 28.5642 23.8534Z" fill="white"/>
<path d="M25.414 14.348C26.3499 13.2034 26.811 11.732 26.6993 10.2466C25.2695 10.3996 23.9487 11.0958 23.0002 12.1966C22.5365 12.7344 22.1813 13.36 21.955 14.0377C21.7286 14.7154 21.6356 15.4319 21.6813 16.1462C22.3964 16.1537 23.1039 15.9958 23.7505 15.6843C24.3971 15.3729 24.9659 14.916 25.414 14.348Z" fill="white"/>
<path d="M48.7842 31.889H43.3255L42.0146 35.8328H39.7025L44.8729 21.2417H47.2751L52.4455 35.8328H50.094L48.7842 31.889ZM43.8909 30.0691H48.2178L46.0847 23.6686H46.0251L43.8909 30.0691Z" fill="white"/>
<path d="M63.6117 30.5144C63.6117 33.8203 61.8751 35.9442 59.2545 35.9442C58.5906 35.9796 57.9304 35.8238 57.3494 35.4946C56.7684 35.1654 56.2901 34.6762 55.9694 34.083H55.9198V39.3521H53.7766V25.1948H55.8511V26.9642H55.8905C56.2261 26.3738 56.7124 25.8871 57.2978 25.556C57.8832 25.2248 58.5458 25.0615 59.2151 25.0835C61.865 25.0835 63.6117 27.2178 63.6117 30.5144ZM61.4089 30.5144C61.4089 28.3607 60.3165 26.9447 58.6497 26.9447C57.0122 26.9447 55.9108 28.3905 55.9108 30.5144C55.9108 32.6579 57.0122 34.0934 58.6497 34.0934C60.3165 34.0934 61.4089 32.6877 61.4089 30.5144Z" fill="white"/>
<path d="M75.1035 30.5144C75.1035 33.8202 73.3669 35.9442 70.7462 35.9442C70.0824 35.9796 69.4221 35.8238 68.8411 35.4946C68.2602 35.1654 67.7819 34.6762 67.4611 34.083H67.4115V39.3521H65.2683V25.1948H67.3428V26.9642H67.3822C67.7178 26.3738 68.2041 25.8871 68.7895 25.556C69.3749 25.2248 70.0375 25.0615 70.7068 25.0835C73.3567 25.0835 75.1035 27.2178 75.1035 30.5144ZM72.9006 30.5144C72.9006 28.3607 71.8082 26.9447 70.1414 26.9447C68.5039 26.9447 67.4025 28.3905 67.4025 30.5144C67.4025 32.6579 68.5039 34.0933 70.1414 34.0933C71.8082 34.0933 72.9006 32.6877 72.9006 30.5144H72.9006Z" fill="white"/>
<path d="M82.6986 31.7675C82.8574 33.2144 84.237 34.1645 86.1222 34.1645C87.9287 34.1645 89.2283 33.2144 89.2283 31.9097C89.2283 30.7772 88.4444 30.099 86.5885 29.6343L84.7325 29.1788C82.1028 28.5316 80.882 27.2786 80.882 25.2453C80.882 22.7278 83.0353 20.9985 86.0929 20.9985C89.119 20.9985 91.1935 22.7278 91.2633 25.2453H89.0999C88.9704 23.7891 87.789 22.9102 86.0625 22.9102C84.336 22.9102 83.1547 23.7995 83.1547 25.0938C83.1547 26.1254 83.9092 26.7324 85.7551 27.1971L87.3329 27.5918C90.2711 28.2998 91.4919 29.5023 91.4919 31.6366C91.4919 34.3664 89.3578 36.0761 85.9634 36.0761C82.7875 36.0761 80.6432 34.4065 80.5047 31.7674L82.6986 31.7675Z" fill="white"/>
<path d="M96.1172 22.6772V25.1948H98.1027V26.924H96.1172V32.7886C96.1172 33.6997 96.5148 34.1243 97.3876 34.1243C97.6233 34.1201 97.8586 34.1032 98.0926 34.0738V35.7926C97.7002 35.8673 97.3013 35.9012 96.9022 35.8936C94.7883 35.8936 93.9639 35.0847 93.9639 33.0215V26.924H92.4458V25.1948H93.9639V22.6772H96.1172Z" fill="white"/>
<path d="M99.2526 30.5144C99.2526 27.1673 101.187 25.064 104.205 25.064C107.232 25.064 109.158 27.1672 109.158 30.5144C109.158 33.8707 107.242 35.9648 104.205 35.9648C101.168 35.9648 99.2526 33.8707 99.2526 30.5144ZM106.974 30.5144C106.974 28.2183 105.941 26.8632 104.205 26.8632C102.468 26.8632 101.436 28.2287 101.436 30.5144C101.436 32.8196 102.468 34.1644 104.205 34.1644C105.941 34.1644 106.974 32.8196 106.974 30.5144H106.974Z" fill="white"/>
<path d="M110.925 25.1947H112.969V27.0054H113.018C113.156 26.4399 113.482 25.9401 113.939 25.5901C114.396 25.2401 114.958 25.0612 115.53 25.0834C115.777 25.0825 116.023 25.1098 116.264 25.1649V27.2073C115.952 27.1103 115.627 27.0657 115.301 27.0754C114.99 27.0625 114.679 27.1184 114.391 27.2393C114.103 27.3602 113.844 27.5432 113.632 27.7757C113.42 28.0083 113.259 28.2848 113.162 28.5864C113.065 28.888 113.032 29.2075 113.068 29.5229V35.8328H110.924L110.925 25.1947Z" fill="white"/>
<path d="M126.145 32.7083C125.857 34.6395 124.011 35.9648 121.649 35.9648C118.612 35.9648 116.727 33.8913 116.727 30.5649C116.727 27.2281 118.622 25.064 121.559 25.064C124.448 25.064 126.264 27.0858 126.264 30.3113V31.0594H118.89V31.1914C118.856 31.5829 118.904 31.9773 119.031 32.3484C119.158 32.7195 119.361 33.0588 119.627 33.3438C119.893 33.6288 120.215 33.853 120.572 34.0014C120.929 34.1498 121.313 34.2191 121.699 34.2046C122.205 34.2529 122.714 34.1334 123.148 33.8638C123.582 33.5943 123.92 33.189 124.11 32.7083L126.145 32.7083ZM118.9 29.5333H124.12C124.139 29.1813 124.087 28.829 123.966 28.4986C123.846 28.1682 123.659 27.8667 123.419 27.6132C123.178 27.3597 122.889 27.1595 122.569 27.0253C122.249 26.8911 121.905 26.8258 121.559 26.8333C121.21 26.8312 120.864 26.8995 120.541 27.0344C120.218 27.1692 119.925 27.3678 119.678 27.6189C119.43 27.8699 119.234 28.1683 119.101 28.4969C118.968 28.8255 118.899 29.1777 118.9 29.5333V29.5333Z" fill="white"/>
<path d="M43.6222 10.2589C44.0716 10.2261 44.5224 10.2952 44.9423 10.4614C45.3622 10.6276 45.7407 10.8867 46.0504 11.2199C46.3602 11.5532 46.5935 11.9523 46.7335 12.3886C46.8735 12.8248 46.9167 13.2873 46.8601 13.7426C46.8601 15.9824 45.6719 17.2699 43.6222 17.2699H41.1367V10.2589H43.6222ZM42.2055 16.2784H43.5029C43.8239 16.298 44.1452 16.2444 44.4434 16.1214C44.7415 15.9985 45.009 15.8094 45.2264 15.5679C45.4438 15.3263 45.6056 15.0384 45.7 14.7252C45.7944 14.4119 45.819 14.0811 45.7721 13.7569C45.8156 13.434 45.7885 13.1052 45.6926 12.7943C45.5968 12.4833 45.4346 12.1978 45.2177 11.9581C45.0008 11.7185 44.7346 11.5307 44.4381 11.4083C44.1417 11.2858 43.8223 11.2316 43.5029 11.2497H42.2055V16.2784Z" fill="white"/>
<path d="M48.0673 14.6222C48.0347 14.2745 48.0737 13.9237 48.182 13.5922C48.2902 13.2608 48.4652 12.9561 48.6958 12.6976C48.9263 12.4391 49.2074 12.2326 49.5209 12.0913C49.8344 11.95 50.1734 11.877 50.5163 11.877C50.8591 11.877 51.1981 11.95 51.5116 12.0913C51.8251 12.2326 52.1062 12.4391 52.3368 12.6976C52.5673 12.9561 52.7424 13.2608 52.8506 13.5922C52.9588 13.9237 52.9978 14.2745 52.9652 14.6222C52.9984 14.9702 52.9599 15.3216 52.8519 15.6535C52.744 15.9855 52.5691 16.2908 52.3385 16.5498C52.1078 16.8087 51.8266 17.0157 51.5127 17.1573C51.1989 17.299 50.8595 17.3721 50.5163 17.3721C50.173 17.3721 49.8336 17.299 49.5198 17.1573C49.206 17.0157 48.9247 16.8087 48.6941 16.5498C48.4634 16.2908 48.2885 15.9855 48.1806 15.6535C48.0726 15.3216 48.0341 14.9702 48.0673 14.6222ZM51.911 14.6222C51.911 13.4753 51.4054 12.8046 50.5179 12.8046C49.6271 12.8046 49.126 13.4753 49.126 14.6222C49.126 15.7783 49.6272 16.4438 50.5179 16.4438C51.4054 16.4438 51.9111 15.7737 51.9111 14.6222H51.911Z" fill="white"/>
<path d="M59.4758 17.2699H58.4126L57.3394 13.3732H57.2583L56.1895 17.2699H55.1365L53.7051 11.979H54.7446L55.6748 16.0163H55.7514L56.8191 11.979H57.8022L58.8699 16.0163H58.951L59.8767 11.979H60.9015L59.4758 17.2699Z" fill="white"/>
<path d="M62.1054 11.9789H63.092V12.8194H63.1686C63.2985 12.5176 63.5176 12.2645 63.7954 12.0955C64.0732 11.9265 64.3958 11.8501 64.7182 11.8768C64.9709 11.8574 65.2246 11.8963 65.4606 11.9904C65.6965 12.0845 65.9086 12.2315 66.0813 12.4205C66.2539 12.6095 66.3826 12.8356 66.4577 13.0821C66.5329 13.3287 66.5527 13.5893 66.5156 13.8447V17.2698H65.4908V14.1069C65.4908 13.2566 65.1282 12.8338 64.3702 12.8338C64.1987 12.8256 64.0274 12.8554 63.8682 12.921C63.709 12.9866 63.5656 13.0865 63.4478 13.2138C63.3301 13.3412 63.2407 13.493 63.1859 13.6588C63.1311 13.8246 63.1121 14.0006 63.1303 14.1746V17.2698H62.1054L62.1054 11.9789Z" fill="white"/>
<path d="M68.1486 9.91357H69.1735V17.2699H68.1486V9.91357Z" fill="white"/>
<path d="M70.5981 14.6223C70.5655 14.2746 70.6045 13.9237 70.7128 13.5923C70.821 13.2608 70.996 12.9561 71.2266 12.6976C71.4573 12.4391 71.7383 12.2326 72.0519 12.0913C72.3654 11.95 72.7044 11.877 73.0473 11.877C73.3901 11.877 73.7292 11.95 74.0427 12.0913C74.3562 12.2326 74.6373 12.4391 74.8679 12.6976C75.0985 12.9561 75.2736 13.2608 75.3818 13.5923C75.49 13.9237 75.5291 14.2746 75.4965 14.6223C75.5297 14.9704 75.4911 15.3217 75.3831 15.6536C75.2752 15.9856 75.1002 16.2909 74.8696 16.5499C74.6389 16.8088 74.3576 17.0158 74.0438 17.1574C73.73 17.299 73.3905 17.3722 73.0473 17.3722C72.704 17.3722 72.3646 17.299 72.0508 17.1574C71.7369 17.0158 71.4556 16.8088 71.225 16.5499C70.9943 16.2909 70.8194 15.9856 70.7114 15.6536C70.6035 15.3217 70.5648 14.9704 70.5981 14.6223ZM74.4418 14.6223C74.4418 13.4754 73.9361 12.8047 73.0487 12.8047C72.1579 12.8047 71.6567 13.4754 71.6567 14.6223C71.6567 15.7784 72.1579 16.4439 73.0487 16.4439C73.9361 16.4439 74.4418 15.7738 74.4418 14.6223H74.4418Z" fill="white"/>
<path d="M76.5754 15.7737C76.5754 14.8213 77.2714 14.2723 78.5068 14.1942L79.9135 14.1116V13.6549C79.9135 13.0961 79.5508 12.7806 78.8503 12.7806C78.2782 12.7806 77.8818 12.9946 77.7681 13.3686H76.7759C76.8806 12.4599 77.7196 11.877 78.8976 11.877C80.1995 11.877 80.9338 12.5373 80.9338 13.6549V17.27H79.9473V16.5264H79.8662C79.7016 16.7932 79.4705 17.0106 79.1964 17.1565C78.9224 17.3025 78.6153 17.3717 78.3064 17.3572C78.0884 17.3803 77.8681 17.3566 77.6596 17.2876C77.4511 17.2186 77.2592 17.1059 77.0961 16.9567C76.933 16.8075 76.8024 16.6252 76.7127 16.4214C76.623 16.2177 76.5763 15.997 76.5754 15.7737ZM79.9135 15.3216V14.8793L78.6454 14.9619C77.9302 15.0106 77.6059 15.2585 77.6059 15.7249C77.6059 16.2011 78.0113 16.4782 78.5688 16.4782C78.7322 16.4951 78.8972 16.4783 79.054 16.4288C79.2109 16.3794 79.3564 16.2983 79.4818 16.1904C79.6073 16.0824 79.7101 15.9499 79.7843 15.8007C79.8584 15.6514 79.9024 15.4885 79.9135 15.3216Z" fill="white"/>
<path d="M82.2807 14.6222C82.2807 12.9503 83.1243 11.8912 84.4363 11.8912C84.7608 11.876 85.0829 11.9552 85.3649 12.1196C85.6469 12.2839 85.8771 12.5267 86.0287 12.8195H86.1053V9.91357H87.1301V17.2699H86.1481V16.434H86.067C85.9037 16.7248 85.6654 16.9645 85.378 17.1272C85.0906 17.29 84.7649 17.3695 84.4363 17.3571C83.1153 17.3572 82.2807 16.298 82.2807 14.6222ZM83.3394 14.6222C83.3394 15.7444 83.8586 16.4197 84.7269 16.4197C85.5907 16.4197 86.1245 15.7347 86.1245 14.6268C86.1245 13.5241 85.585 12.8293 84.7269 12.8293C83.8642 12.8293 83.3394 13.5091 83.3394 14.6222H83.3394Z" fill="white"/>
<path d="M91.3703 14.6222C91.3376 14.2745 91.3767 13.9237 91.4849 13.5922C91.5931 13.2608 91.7681 12.9561 91.9987 12.6976C92.2293 12.4391 92.5103 12.2326 92.8238 12.0913C93.1373 11.95 93.4764 11.877 93.8192 11.877C94.162 11.877 94.5011 11.95 94.8146 12.0913C95.1281 12.2326 95.4091 12.4391 95.6397 12.6976C95.8703 12.9561 96.0453 13.2608 96.1535 13.5922C96.2617 13.9237 96.3008 14.2745 96.2681 14.6222C96.3014 14.9702 96.2628 15.3216 96.1549 15.6535C96.0469 15.9855 95.872 16.2908 95.6414 16.5498C95.4108 16.8087 95.1295 17.0157 94.8157 17.1573C94.5019 17.299 94.1624 17.3721 93.8192 17.3721C93.476 17.3721 93.1365 17.299 92.8227 17.1573C92.5089 17.0157 92.2276 16.8087 91.997 16.5498C91.7664 16.2908 91.5915 15.9855 91.4835 15.6535C91.3756 15.3216 91.337 14.9702 91.3703 14.6222ZM95.214 14.6222C95.214 13.4753 94.7083 12.8046 93.8209 12.8046C92.9301 12.8046 92.429 13.4753 92.429 14.6222C92.429 15.7783 92.9301 16.4438 93.8209 16.4438C94.7083 16.4438 95.214 15.7737 95.214 14.6222Z" fill="white"/>
<path d="M97.6432 11.9789H98.6298V12.8194H98.7064C98.8363 12.5176 99.0554 12.2645 99.3332 12.0955C99.611 11.9265 99.9336 11.8501 100.256 11.8768C100.509 11.8574 100.762 11.8963 100.998 11.9904C101.234 12.0845 101.446 12.2315 101.619 12.4205C101.792 12.6095 101.92 12.8356 101.996 13.0821C102.071 13.3287 102.091 13.5893 102.053 13.8447V17.2698H101.029V14.1069C101.029 13.2566 100.666 12.8338 99.908 12.8338C99.7365 12.8256 99.5652 12.8554 99.406 12.921C99.2468 12.9866 99.1034 13.0865 98.9856 13.2138C98.8678 13.3412 98.7785 13.493 98.7237 13.6588C98.6689 13.8246 98.6499 14.0006 98.6681 14.1746V17.2698H97.6432V11.9789Z" fill="white"/>
<path d="M107.844 10.6616V12.003H108.969V12.8825H107.844V15.6031C107.844 16.1574 108.068 16.4001 108.579 16.4001C108.709 16.3996 108.84 16.3916 108.969 16.376V17.2457C108.785 17.2793 108.599 17.2971 108.412 17.2991C107.272 17.2991 106.818 16.8906 106.818 15.8705V12.8825H105.994V12.0029H106.818V10.6616H107.844Z" fill="white"/>
<path d="M110.369 9.91357H111.385V12.8293H111.466C111.602 12.5246 111.828 12.2701 112.111 12.1005C112.394 11.9309 112.722 11.8544 113.05 11.8815C113.301 11.8675 113.552 11.9103 113.785 12.0067C114.019 12.1031 114.228 12.2508 114.399 12.4391C114.57 12.6275 114.698 12.852 114.774 13.0966C114.85 13.3411 114.871 13.5997 114.838 13.8539V17.2699H113.812V14.1115C113.812 13.2664 113.426 12.8384 112.702 12.8384C112.526 12.8237 112.348 12.8484 112.183 12.9107C112.017 12.9731 111.866 13.0716 111.742 13.1993C111.617 13.3271 111.522 13.481 111.462 13.6504C111.401 13.8198 111.378 14.0004 111.394 14.1798V17.2699H110.369L110.369 9.91357Z" fill="white"/>
<path d="M120.814 15.8415C120.674 16.3251 120.373 16.7433 119.961 17.0232C119.55 17.303 119.055 17.4265 118.563 17.3722C118.221 17.3814 117.881 17.3146 117.567 17.1765C117.253 17.0385 116.972 16.8323 116.744 16.5725C116.515 16.3127 116.345 16.0053 116.245 15.6718C116.145 15.3384 116.118 14.9867 116.165 14.6413C116.119 14.2948 116.147 13.9424 116.247 13.6079C116.347 13.2734 116.516 12.9646 116.743 12.7025C116.97 12.4404 117.249 12.2311 117.563 12.0886C117.876 11.9462 118.216 11.8741 118.559 11.877C120.004 11.877 120.876 12.8828 120.876 14.5443V14.9086H117.209V14.9672C117.193 15.1613 117.217 15.3568 117.279 15.5409C117.341 15.7251 117.441 15.894 117.571 16.0367C117.701 16.1794 117.859 16.2928 118.035 16.3696C118.211 16.4465 118.4 16.4851 118.592 16.4829C118.837 16.5129 119.085 16.4679 119.305 16.3537C119.525 16.2395 119.707 16.0612 119.827 15.8415L120.814 15.8415ZM117.209 14.1364H119.832C119.844 13.9588 119.821 13.7804 119.762 13.6128C119.703 13.4451 119.611 13.2917 119.49 13.1627C119.37 13.0336 119.224 12.9316 119.063 12.8632C118.902 12.7949 118.728 12.7617 118.553 12.7657C118.376 12.7635 118.2 12.7974 118.036 12.8655C117.872 12.9336 117.723 13.0344 117.597 13.1622C117.472 13.2899 117.373 13.4419 117.306 13.6092C117.24 13.7766 117.206 13.9558 117.209 14.1364H117.209Z" fill="white"/>
<iframe xmlns="" style="display: none !important;"/></svg>